<?xml version="1.0" encoding="iso-8859-1"?>
<!-- Generator: Adobe Illustrator 19.0.0, SVG Export Plug-In . SVG Version: 6.00 Build 0)  -->
<svg version="1.1" xmlns="http://www.w3.org/2000/svg" xmlns:xlink="http://www.w3.org/1999/xlink" x="0px" y="0px"
	 viewBox="0 0 512 512" style="enable-background:new 0 0 512 512;" xml:space="preserve">
<path style="fill:#D58344;" d="M256,172.994c-8.285,0-15-6.716-15-15V86.227c0-37.8,30.754-68.553,68.557-68.553
	c31.895,0,57.844,25.949,57.844,57.846c0,8.284-6.717,15-15,15c-8.285,0-15-6.716-15-15c0-15.354-12.49-27.846-27.844-27.846
	c-21.26,0-38.557,17.295-38.557,38.553v71.767C271,166.278,264.283,172.994,256,172.994z"/>
<path style="fill:#FFA78F;" d="M448.799,255.46h-39.492c-8.285,0-15,6.716-15,15c0,8.283,6.715,15,14.998,15l-0.008,66.399h-0.002
	c-8.283,0-15,6.716-15,15s6.717,15,15,15h39.504c34.85,0,63.201-28.351,63.201-63.199C512,283.811,483.648,255.46,448.799,255.46z"
	/>
<path style="fill:#FFBFAB;" d="M102.695,351.859V285.46c8.285,0,15-6.716,15-15s-6.715-15-15-15H63.199
	C28.352,255.46,0,283.811,0,318.66s28.352,63.199,63.199,63.199h39.496c8.285,0,15-6.716,15-15S110.98,351.859,102.695,351.859z"/>
<path style="fill:#FFCDBE;" d="M256,142.994c-96.863,0-175.668,78.804-175.668,175.666S159.137,494.326,256,494.326
	s175.666-78.804,175.666-175.666S352.863,142.994,256,142.994z"/>
<path style="fill:#FFBEAA;" d="M256.002,142.994c-0.002,0-0.002,0-0.002,0v351.332c0,0,0,0,0.002,0
	c96.861,0,175.664-78.804,175.664-175.666S352.863,142.994,256.002,142.994z"/>
<path style="fill:#D58344;" d="M207.799,269.393h-16.066c-8.283,0-15-6.716-15-15s6.717-15,15-15h16.066c8.285,0,15,6.716,15,15
	S216.084,269.393,207.799,269.393z"/>
<path style="fill:#8CD5FF;" d="M159.605,333.659c-3.961,0-7.82-1.6-10.611-4.39c-2.799-2.8-4.398-6.66-4.398-10.61
	c0-3.949,1.6-7.81,4.398-10.609c2.791-2.79,6.65-4.391,10.611-4.391c3.939,0,7.809,1.601,10.6,4.391
	c2.789,2.8,4.391,6.66,4.391,10.609c0,3.94-1.602,7.81-4.391,10.61C167.414,332.06,163.545,333.659,159.605,333.659z"/>
<path style="fill:#BA5820;" d="M320.266,269.393H304.2c-8.283,0-15-6.716-15-15s6.717-15,15-15h16.066c8.285,0,15,6.716,15,15
	S328.551,269.393,320.266,269.393z"/>
<path style="fill:#FF6C6C;" d="M255.994,319.727c-16.881,0-32.752,6.574-44.688,18.512c-11.936,11.936-18.508,27.808-18.508,44.686
	c0,8.283,6.717,14.999,15,14.999l96.4,0.002c3.979,0,7.795-1.581,10.607-4.394c2.813-2.813,4.393-6.629,4.393-10.607
	C319.197,348.077,290.846,319.727,255.994,319.727z"/>
<path style="fill:#45C1FF;" d="M352.404,333.659c-3.959,0-7.82-1.6-10.609-4.39c-2.801-2.8-4.4-6.67-4.4-10.61
	c0-3.949,1.6-7.81,4.4-10.609c2.789-2.79,6.66-4.391,10.609-4.391c3.941,0,7.811,1.601,10.602,4.391
	c2.789,2.8,4.398,6.66,4.398,10.609c0,3.94-1.609,7.81-4.398,10.61C360.215,332.06,356.355,333.659,352.404,333.659z"/>
<path style="fill:#BA5820;" d="M309.559,17.674v30c15.352,0,27.842,12.491,27.842,27.846c0,8.284,6.717,15,15,15
	c8.285,0,15-6.716,15-15C367.4,43.623,341.453,17.674,309.559,17.674z"/>
<path style="fill:#FF3636;" d="M256,319.727v78.198l48.199,0.001c3.979,0,7.795-1.581,10.607-4.394
	c2.813-2.813,4.393-6.629,4.393-10.607C319.197,348.079,290.85,319.729,256,319.727z"/>
<g>
</g>
<g>
</g>
<g>
</g>
<g>
</g>
<g>
</g>
<g>
</g>
<g>
</g>
<g>
</g>
<g>
</g>
<g>
</g>
<g>
</g>
<g>
</g>
<g>
</g>
<g>
</g>
<g>
</g>
</svg>
