<svg width="35" height="32" viewBox="0 0 35 32" fill="none" xmlns="http://www.w3.org/2000/svg"><path d="M30.284 0H4.717C2.112 0 0 1.93 0 4.312v23.376C0 30.069 2.112 32 4.717 32h12.61l.02-11.435h-3.249c-.422 0-.765-.312-.766-.698l-.016-3.686c-.002-.389.342-.704.767-.704h3.243v-3.562c0-4.133 2.761-6.383 6.794-6.383h3.309c.423 0 .767.313.767.7v3.109c0 .387-.343.7-.767.7l-2.03.002c-2.194 0-2.618.952-2.618 2.35v3.084H27.6c.46 0 .815.367.761.784l-.478 3.686c-.045.352-.372.618-.76.618h-4.32L22.78 32h7.503C32.888 32 35 30.07 35 27.688V4.312C35 1.931 32.888 0 30.284 0z" fill="#fff"/></svg>