<svg id="Capa_1" height="512" viewBox="0 0 512 512" width="512" xmlns="http://www.w3.org/2000/svg"><path d="M121.191 82.243c-11.467 9.403-16.055 22.796-15.014 34.344 1.189 13.184 11.521 26.175 28.155 28.709 11.639 1.774 24.608-2.217 30.762-8.74-8.917-23.827-21.639-57.136-21.639-57.136-8.297-.903-15.82.203-22.264 2.823z" fill="#c38778"/><path d="M137.818 141.109c-16.676-2.242-24.947-14.932-26.136-28.116-1.041-11.547 2.129-22.21 9.509-30.75-14.488 5.889-23.509 19.449-23.509 35.2 0 21.115 15.66 36.677 35.161 39.503 13.009 1.886 26.025-1.589 37.234-6.97a2340.834 2340.834 0 00-4.983-13.42c-9.421 3.997-19.359 5.617-27.276 4.553z" fill="#b46e5a"/><path d="M153.455 79.419c0 22.906 18.584 48.767 23.368 57.12l116.714-20.621c.084-28.047.187-66.441.189-87.106C276.746 12.911 250.562 7.5 227.88 7.5c-15.088 0-30.545 2.728-44.044 8.781-9.569 7.271-30.381 25.047-30.381 63.138z" fill="#c38778"/><path d="M194.472 115.918c-4.007 3.884-12.549 10.988-17.406 13.97-4.783-8.353-18.611-27.563-18.611-50.469 0-38.091 15.812-55.866 25.381-63.138-23.048 10.336-40.381 30.374-40.381 63.138 0 33.201 18.662 48.86 26.623 70.557h123.35s.05-14.52.109-34.058z" fill="#b46e5a"/><path d="M290.941 194.207c6.621-9.146 11.702-24.646 16.674-46.669 7.652-.319 15.514-4.863 15.514-12.267 0-8.004-10.965-12.019-14.083-23.316-1.363-4.939-1.143-10.166.319-17.27 6.486-31.505-1.29-52.435-15.64-65.874-.002 35.062-47.337 34.737-47.337 34.737s-4.2 21.045-25.491 42.891c-2.968-4.49-7.907-7.43-13.499-7.43-9.076 0-16.433 7.74-16.433 17.287 0 6.055 1.685 11.555 4.694 16.024 4.742 7.043 25.283 61.887 25.283 61.887z" fill="#ffcdbe"/><path d="M314.208 339.08l-2.78.918c8.408-8.848 15.494-16.995 19.91-22.579a35.995 35.995 0 001.864-11.481c0-16.309-10.826-27.748-30.633-37.709l-83.544-42.014-60.033 79.365 41.073 78.923-20.839 112.842 233.467-7.846-6.353-58.639-10.842-37.416c-15.762-31.996-46.155-54.364-81.29-54.364z" fill="#d3effd"/><path d="M185.277 489.5l19.803-68.026c22.173 13.344 69.958 32.063 127.961 32.063 36.21 0 66.164-14.676 73.299-22.676l-56.604-21.121-89.867-52.717 54.339-17.943s12.349-7.363 17.13-21.661c-24.108 7.476-39.572 4.464-58.77-5.19l-49.565-24.926-64.012 18.278c9.42 40.696 30.877 80.093 30.877 80.093L155.277 504.5h259.041l-1.625-15z" fill="#b2e5fb"/><path d="M199.869 381.673c0 6.246 2.903 12.144 7.883 15.913 13.702 10.37 71.308 30.951 125.289 30.951 32.587 0 60.784-5.348 70.939-11.36-1.959-8.322-4.817-16.29-8.482-23.732l-38.836-9.926c-18.138-4.636-37.111 3.618-46.086 20.048l-65.707-38.545v-110.66a27.548 27.548 0 00-6.374-17.665c-5.074-6.109-12.728-19.999-21.29-19.999l-47.127.316-7.036 82.138h36.827z" fill="#ffcdbe"/><path d="M403.98 417.177c-11.748 2.193-38.352 6.36-70.939 6.36-53.98 0-106.587-20.581-120.289-30.951-4.98-3.769-7.883-9.667-7.883-15.913v-86.312a7.5 7.5 0 00-15 0h-9.863c-5.064 0-9.331-3.818-9.841-8.856-.292-2.882-.519-6.24-.519-9.717 0-11.162 1.67-21.933 3.418-30.147 1.856-8.725 9.585-14.943 18.506-14.943h25.635c8.562 0 16.216 3.89 21.29 9.999l-.001.001h1.375v-40.195c8.85 3.477 21.893 7.638 33.657 7.638 6.983 0 12.605-3.29 17.415-9.934-23.39-2.276-72.351-14.145-72.351-36.742l-.159-13.624c-9.989 0-18.03-4.476-22.773-11.52-5.808 5.629-14.869 12.513-25.581 17.655 2.157 5.88 3.536 12.198 3.536 19.435 0 36.851-18.968 62.287-18.968 102.377 0 10.802 1.698 22.349 4.346 33.793h30.877v80.093c0 6.246 2.903 12.144 7.883 15.913 17.225 13.037 69.729 36.951 135.289 36.951 50.408 0 73.299-7.676 73.299-7.676a112.43 112.43 0 00-2.359-13.685z" fill="#ebae9d"/><path d="M414.318 512h-146.41a7.5 7.5 0 010-15h138.053l-6.149-56.758c-11.03 2.35-32.976 5.795-66.771 5.795-65.289 0-119.384-23.006-139.815-38.471a26.715 26.715 0 01-1.55-1.267L165.271 497h72.637a7.5 7.5 0 010 15h-82.632a7.5 7.5 0 01-7.201-9.597l33.744-115.912c-2.907-5.605-9.689-19.191-16.539-36.553-12.033-30.5-18.135-56.794-18.135-78.151 0-21.558 5.131-38.837 10.094-55.548 4.563-15.367 8.874-29.882 8.874-46.83a47.02 47.02 0 00-.908-9.262c-10.616 3.908-22.103 5.863-33.437 4.22-24.096-3.493-41.585-23.228-41.585-46.926 0-12.887 5.036-24.692 14.179-33.24 8.405-7.858 19.585-12.229 31.911-12.571 1.878-22.603 12.051-41.077 29.704-53.748C182.042 6.352 204.027 0 227.88 0c9.606 0 18.945.904 27.758 2.687 4.06.821 6.686 4.778 5.864 8.838s-4.778 6.686-8.838 5.864C244.828 15.804 236.49 15 227.88 15c-20.741 0-39.62 5.352-53.157 15.069-15.771 11.321-23.768 27.925-23.768 49.35 0 20.219 7.425 32.947 15.287 46.423 2.579 4.421 5.189 8.896 7.488 13.629a97.24 97.24 0 0012.576-8.837c-1.835-4.334-2.841-9.171-2.841-14.338 0-13.668 10.736-24.788 23.933-24.788 4.765 0 9.342 1.467 13.204 4.112 14.968-17.667 18.402-33.401 18.438-33.574.727-3.477 3.8-5.999 7.348-5.999h.097c2.076 0 36.714-.371 39.554-24.011a57.794 57.794 0 00-7.347-5.115 7.5 7.5 0 017.623-12.919c19.248 11.355 40.146 34.833 30.396 82.193-1.284 6.241-1.41 10.228-.435 13.762 1.073 3.889 3.699 6.754 6.479 9.787 3.691 4.027 7.875 8.593 7.875 15.525 0 7.831-5.866 16.329-16.859 18.965-6.988 29.757-16.392 57.404-40.245 57.404-8.813 0-18.125-2.061-26.157-4.548v24.982l32.124 16.155a7.5 7.5 0 013.331 10.07 7.5 7.5 0 01-10.07 3.331l-20.515-10.317c.086 1.005.131 2.021.131 3.049v50.728a7.5 7.5 0 01-15 0V254.36c0-11.119-9.045-20.164-20.164-20.164H195.54a7.5 7.5 0 010-15h21.664a34.95 34.95 0 0115.164 3.44v-21.105c-3.767-1.624-6.151-2.833-6.46-2.99a7.5 7.5 0 016.829-13.355c.378.191 22.74 11.454 40.788 11.454 8.718 0 14.879-10.236 19.754-24.611-7.128-1.764-14.691-5.543-19.428-12.168a7.5 7.5 0 0112.202-8.724c2.415 3.378 6.981 5.509 11.433 6.493.98-3.818 1.912-7.757 2.812-11.742a7.501 7.501 0 017.003-5.842c3.931-.164 8.327-2.24 8.327-4.773 0-1.099-2.09-3.378-3.934-5.391-3.495-3.814-7.845-8.56-9.879-15.931-1.35-4.89-1.545-9.975-.573-16.457-4.333-2.947-12.112-5.329-23.263-4.599-4.14.271-7.704-2.86-7.975-6.993s2.86-7.704 6.993-7.975c10.201-.669 19.42.724 26.759 3.911 1.383-14.226-.693-26.297-6.203-36.143-8.516 17.541-30.073 23.952-45.462 25.142-2.8 8.313-9.806 24.364-25.734 40.743a7.503 7.503 0 01-11.797-1.123c-1.688-2.475-4.356-3.947-7.165-3.947-4.926 0-8.933 4.391-8.933 9.788 0 11.801 8.21 20.043 19.966 20.043a7.5 7.5 0 010 15c-9.126 0-17.225-3.157-23.324-8.499a108.954 108.954 0 01-15.995 10.884 61.807 61.807 0 012.001 15.686c0 19.127-4.827 35.381-9.495 51.1-4.657 15.683-9.473 31.9-9.473 51.277 0 8.392 1.096 17.307 2.897 26.292h17.326v-7.719a7.5 7.5 0 0115 0v95.312c0 3.893 1.835 7.606 4.91 9.933 18.098 13.698 69.603 35.431 130.762 35.431 34.238 0 55.341-3.582 64.955-5.745a104.524 104.524 0 00-7.751-25.448l-35.439-9.057a33.432 33.432 0 00-37.647 16.376 7.502 7.502 0 01-10.377 2.874l-65.708-38.545a7.5 7.5 0 01-3.705-6.469V335.09a7.5 7.5 0 0115 0v25.638l55.862 32.769c11.671-15.069 31.347-22.083 50.289-17.243l21.092 5.391a95.536 95.536 0 00-8.849-10.373c-15.695-15.922-35.78-24.691-56.555-24.691a7.5 7.5 0 01-3.838-13.944c.593-.362 15.332-9.558 15.332-26.698 0-12.393-7.926-21.667-26.503-31.008a7.5 7.5 0 016.739-13.401c14.923 7.505 34.764 20.273 34.764 44.41 0 11.673-4.45 20.775-9.408 27.294 18.539 3.614 35.92 13.072 50.152 27.509 17.998 18.258 29.486 42.874 32.351 69.313l7.978 73.639c.229 2.117-.453 4.232-1.875 5.817S416.447 512 414.318 512zM168.64 313.081c3.88 14.046 8.968 27.642 13.728 38.991v-38.991zM136.236 86.643c-8.476.335-16.037 3.288-21.63 8.517-6.077 5.681-9.423 13.595-9.423 22.283 0 16.437 11.817 29.628 28.737 32.081 8.91 1.289 17.978-.408 26.309-3.531-2.024-4.16-4.42-8.269-6.943-12.593-7.29-12.493-15.45-26.482-17.05-46.757zm144.069 41.063c-6.799 0-13.626-2.846-18.335-7.947a7.5 7.5 0 0111.021-10.175c2.404 2.605 6.51 3.769 9.762 2.769a7.5 7.5 0 114.414 14.336 23.33 23.33 0 01-6.862 1.017z"/></svg>