<svg width="40" height="32" viewBox="0 0 40 32" fill="none" xmlns="http://www.w3.org/2000/svg"><path d="M39.788 28.9a4.54 4.54 0 00-.136-.365c-.694-1.753-2.02-3.904-3.977-6.455l-.042-.058-.02-.029-.021-.03h-.021c-.889-1.187-1.451-1.985-1.687-2.394-.431-.779-.528-1.567-.292-2.366.166-.603.791-1.878 1.874-3.825.57-1.032 1.02-1.859 1.354-2.482 2.402-4.478 3.443-7.34 3.124-8.585l-.124-.291c-.084-.176-.299-.336-.645-.482-.348-.146-.792-.17-1.334-.073l-5.998.058c-.097-.048-.235-.044-.416.015l-.271.088-.104.073-.083.088c-.07.058-.146.16-.23.306a2.31 2.31 0 00-.207.51 57.934 57.934 0 01-2.229 6.571 69.527 69.527 0 01-1.416 3.14c-.43.885-.792 1.537-1.083 1.956a9.254 9.254 0 01-.792 1.007c-.236.254-.416.36-.54.322-.126-.04-.244-.079-.355-.117a1.85 1.85 0 01-.469-.716c-.118-.302-.198-.681-.24-1.139a17.523 17.523 0 01-.072-1.183c-.007-.33-.004-.798.01-1.402.015-.603.021-1.012.021-1.226 0-.74.01-1.543.031-2.41.021-.865.038-1.552.052-2.058.015-.506.021-1.041.021-1.606 0-.564-.024-1.007-.073-1.329a5.91 5.91 0 00-.218-.934c-.097-.302-.24-.535-.427-.701a2.087 2.087 0 00-.698-.394c-.735-.234-1.672-.36-2.811-.38-2.583-.039-4.242.195-4.978.701a3.207 3.207 0 00-.791.876c-.25.428-.285.662-.104.7.833.176 1.422.594 1.77 1.256l.125.351c.097.253.194.701.291 1.343.098.643.16 1.353.188 2.132.07 1.421.07 2.638 0 3.65s-.135 1.8-.198 2.365c-.063.565-.156 1.022-.281 1.373-.125.35-.209.564-.25.642a.453.453 0 01-.104.146c-.18.097-.368.146-.563.146-.194 0-.43-.136-.708-.409-.277-.272-.565-.647-.864-1.124-.298-.477-.635-1.144-1.01-2A41.01 41.01 0 0110.6 9.115l-.334-.847a87.485 87.485 0 01-.853-2.38 56.672 56.672 0 01-.958-3.023c-.111-.409-.278-.72-.5-.934l-.104-.088c-.07-.078-.18-.16-.333-.248a1.752 1.752 0 00-.48-.19l-5.706.058c-.583 0-.979.185-1.187.555l-.083.175C.02 2.291 0 2.447 0 2.661c0 .214.042.477.125.788a116.89 116.89 0 002.718 7.943c.979 2.55 1.83 4.605 2.55 6.161a78.212 78.212 0 002.208 4.41c.75 1.382 1.247 2.268 1.49 2.657.243.39.434.682.572.876l.521.7c.333.468.823 1.028 1.468 1.68a25.94 25.94 0 002.145 1.928 10.079 10.079 0 002.74 1.547c1.04.4 2.054.56 3.04.483h2.395c.486-.06.854-.273 1.104-.643l.083-.146a2.47 2.47 0 00.156-.54c.048-.243.073-.512.073-.803a13.2 13.2 0 01.135-2.263c.104-.671.222-1.178.354-1.518.132-.341.282-.628.448-.861.166-.234.285-.375.354-.424.07-.05.125-.082.167-.102.333-.156.725-.005 1.177.453a8.67 8.67 0 011.27 1.693c.396.672.871 1.426 1.427 2.263.555.838 1.04 1.46 1.457 1.87l.417.35c.278.234.639.448 1.083.642.444.195.832.244 1.166.146l5.331-.116c.528 0 .938-.123 1.23-.366.29-.243.464-.511.52-.803a3.15 3.15 0 00.01-.993c-.049-.37-.098-.627-.146-.773z" fill="#fff"/></svg>