<svg width="41" height="35" viewBox="0 0 41 35" fill="none" xmlns="http://www.w3.org/2000/svg"><g clip-path="url(#clip0)" fill="#fff"><path d="M20.507 8.514c-5.814 0-10.52 4.022-10.52 8.98 0 4.963 4.711 8.98 10.52 8.98 5.813 0 10.52-4.021 10.52-8.98 0-4.962-4.712-8.98-10.52-8.98zm0 14.81c-3.774 0-6.829-2.61-6.829-5.83s3.057-5.829 6.829-5.829 6.828 2.61 6.828 5.83c.002 3.22-3.055 5.828-6.828 5.828z"/><path d="M28.952.112c-3.772-.15-13.115-.143-16.89 0-3.318.133-6.244.817-8.603 2.83C-.484 6.309.019 10.845.019 17.496c0 6.808-.443 11.238 3.44 14.553 3.958 3.377 9.348 2.935 17.047 2.935 7.9 0 10.626.005 13.42-.918 3.797-1.259 6.663-4.156 6.944-9.361.177-3.222.167-11.196 0-14.419C40.53 4.141 36.669.415 28.952.112zm5.97 29.709c-2.584 2.207-6.17 2.01-14.465 2.01-8.542 0-11.967.108-14.466-2.032-2.879-2.445-2.358-6.373-2.358-12.327 0-8.057-.969-13.86 8.504-14.274 2.176-.066 2.817-.088 8.296-.088l.077.044c9.103 0 16.246-.814 16.675 7.271.097 1.845.12 2.4.12 7.069-.002 7.207.158 10.148-2.382 12.327z"/><path d="M31.444 10.258c1.357 0 2.458-.94 2.458-2.099 0-1.159-1.1-2.098-2.458-2.098s-2.459.94-2.459 2.098c0 1.16 1.101 2.099 2.459 2.099z"/></g><defs><clipPath id="clip0"><path fill="#fff" d="M0 0h41v35H0z"/></clipPath></defs></svg>